<?xml version="1.0" standalone="no"?>
<!DOCTYPE svg PUBLIC "-//W3C//DTD SVG 20010904//EN"
 "http://www.w3.org/TR/2001/REC-SVG-20010904/DTD/svg10.dtd">
<svg version="1.0" xmlns="http://www.w3.org/2000/svg"
 width="512.000000pt" height="512.000000pt" viewBox="0 0 512.000000 512.000000"
 preserveAspectRatio="xMidYMid meet">
<metadata>
Created by potrace 1.14, written by Peter Selinger 2001-2017
</metadata>
<g transform="translate(0.000000,512.000000) scale(0.100000,-0.100000)"
fill="#000000" stroke="none">
<path d="M2339 4436 c-2 -2 -38 -7 -78 -10 -41 -4 -77 -9 -80 -11 -4 -2 -22
-6 -41 -9 -65 -10 -208 -55 -299 -95 -469 -202 -814 -619 -922 -1115 -26 -115
-35 -184 -30 -223 1 -7 16 -5 50 8 58 22 125 33 203 33 l57 1 12 65 c15 81 54
208 85 276 13 29 24 55 24 59 0 3 21 40 47 83 152 251 354 425 627 536 183 75
369 102 582 83 200 -18 400 -90 579 -208 99 -66 273 -239 341 -339 47 -70 123
-216 139 -268 6 -20 10 -15 38 40 20 41 58 90 109 141 l78 78 -21 42 c-37 72
-124 200 -185 272 -256 302 -594 490 -994 551 -45 6 -315 15 -321 10z"/>
<path d="M4086 3868 c-37 -4 -91 -12 -120 -19 -63 -15 -190 -70 -179 -78 13
-9 58 -82 87 -140 21 -41 31 -51 44 -45 116 49 257 65 362 40 192 -44 357
-206 406 -396 17 -67 22 -174 10 -227 -7 -32 -7 -33 26 -34 109 -3 200 -1 205
5 15 14 6 222 -12 296 -92 380 -446 636 -829 598z"/>
<path d="M786 3223 c-68 -25 -215 -109 -266 -152 -216 -185 -346 -422 -378
-692 -41 -353 130 -729 431 -940 126 -88 309 -160 442 -174 33 -4 70 -8 83
-10 19 -3 26 4 42 38 10 23 39 86 64 140 25 54 46 99 46 100 0 2 -37 2 -82 1
-197 -6 -379 69 -529 216 -168 165 -247 394 -215 625 4 28 7 53 7 57 0 5 11
40 25 79 62 172 159 294 311 393 64 41 70 48 71 80 1 34 27 195 39 244 7 28
-3 28 -91 -5z"/>
<path d="M1539 2792 c-33 -70 -66 -140 -74 -157 l-14 -30 164 -3 c91 -1 165
-4 165 -6 0 -4 -92 -204 -180 -391 -23 -49 -71 -151 -105 -225 -34 -74 -86
-184 -114 -244 -28 -59 -51 -109 -51 -111 0 -1 -29 -63 -64 -136 -77 -162
-106 -226 -106 -233 0 -4 80 -6 178 -6 l178 0 39 83 c21 45 61 129 88 187 27
58 61 130 74 160 33 71 67 144 198 425 59 127 132 284 162 350 31 66 60 126
66 133 7 9 53 12 168 12 l158 0 25 53 c13 28 45 96 70 150 25 54 46 102 46
107 0 5 -216 9 -506 9 l-506 -1 -59 -126z"/>
<path d="M2841 2787 l-200 -132 -42 -90 c-87 -184 -131 -280 -329 -705 -111
-239 -220 -472 -241 -518 -21 -45 -39 -85 -39 -87 0 -3 80 -5 178 -5 l178 0
41 88 c23 48 60 128 83 177 23 50 62 134 87 187 l46 97 148 0 c82 0 149 -4
149 -9 0 -5 -20 -51 -44 -102 -24 -51 -58 -124 -76 -163 -18 -38 -54 -116 -81
-172 l-48 -103 180 0 180 0 48 103 c27 56 57 122 69 147 11 25 48 103 81 173
34 71 61 130 61 132 0 2 24 54 54 116 30 63 115 245 189 404 74 160 153 328
175 375 22 47 54 115 70 153 l31 67 -375 -1 -374 -1 -199 -131z m420 -229
c-109 -236 -189 -406 -198 -423 -10 -18 -23 -19 -153 -20 -77 0 -145 2 -149 5
-5 3 9 41 30 85 74 154 151 320 166 357 l15 37 151 3 c84 2 153 2 155 1 2 0
-6 -21 -17 -45z"/>
<path d="M4023 2785 l-200 -133 -60 -134 c-34 -73 -84 -180 -111 -238 -40 -85
-182 -388 -357 -765 -54 -117 -117 -251 -122 -258 -2 -4 227 -7 510 -7 l514 0
28 61 c15 34 49 107 75 163 26 56 59 126 73 156 14 30 60 129 102 220 42 91
88 189 100 218 l24 52 -250 0 -250 0 -43 -92 c-70 -150 -86 -186 -86 -198 0
-6 17 -9 45 -6 25 2 55 1 68 -1 23 -4 22 -5 -25 -106 -26 -56 -53 -113 -60
-126 -13 -25 -14 -25 -163 -24 -83 1 -151 2 -152 2 -2 1 44 102 110 241 24 52
55 118 67 145 13 28 51 110 86 184 35 73 64 135 64 137 0 1 30 65 66 141 36
76 70 148 75 161 9 24 -19 23 470 23 l146 0 68 147 c37 81 69 153 72 160 4 10
-63 12 -339 12 l-345 -2 -200 -133z"/>
</g>
</svg>
